<svg width="587" height="275" viewBox="0 0 587 275" fill="none" xmlns="http://www.w3.org/2000/svg">
<g clip-path="url(#clip0_54_3)">
<path d="M147.791 2.1925H183.233V165.52H147.791V2.1925Z" fill="#231F20"/>
<path d="M85.6821 78.8911H34.8823V40.9468L85.6821 40.7726V78.8911ZM-0.000244141 8.44792V111.225H120.775V8.26458L-0.000244141 8.44792Z" fill="#231F20"/>
<path d="M60.1088 171.756H95.7602V242.483H184.271V274.331H59.6786L60.1088 171.756Z" fill="#231F20"/>
<path d="M309.017 242.483H257.045L257.421 204.126H309.017V242.483ZM222.566 171.756L221.55 275H343.908V171.756H222.566Z" fill="#231F20"/>
<path d="M210.054 125.543V157.666H356.23V126.12L210.054 125.543Z" fill="#231F20"/>
<mask id="mask0_54_3" style="mask-type:luminance" maskUnits="userSpaceOnUse" x="-3369" y="-2617" width="7323" height="5502">
<path d="M-3368.9 -2616.14H3953.59V2884.36H-3368.9V-2616.14Z" fill="white"/>
</mask>
<g mask="url(#mask0_54_3)">
<path d="M257.648 60.3573C257.648 45.7718 269.547 33.9182 284.155 33.9182C291.169 33.9109 297.899 36.6906 302.868 41.6473C307.838 46.6041 310.641 53.3329 310.663 60.3573C310.641 67.3793 307.837 74.1053 302.866 79.0576C297.896 84.01 291.166 86.7836 284.155 86.769C277.144 86.7836 270.414 84.01 265.444 79.0576C260.474 74.1053 257.67 67.3793 257.648 60.3573ZM223.772 60.3573C223.772 93.6446 250.856 120.698 284.155 120.698C317.436 120.698 344.52 93.6446 344.52 60.3573C344.52 27.0243 317.436 -0.00157166 284.155 -0.00157166C250.856 -0.00157166 223.772 27.0243 223.772 60.3573Z" fill="#231F20"/>
<path d="M428.912 8.62528H461.021L515.738 97.1926L487.446 118.837L444.802 42.6918L401.224 118.837L372.593 98.1369L428.912 8.62528Z" fill="#231F20"/>
<path d="M527.82 2.21671H562.831V42.0404H587.004V77.1153H562.227V165.664H526.557L527.82 2.21671Z" fill="#231F20"/>
</g>
</g>
<defs>
<clipPath id="clip0_54_3">
<rect width="587" height="275" fill="white"/>
</clipPath>
</defs>
</svg>
